<?xml version="1.0" encoding="utf-8"?>
<!-- Generator: Adobe Illustrator 22.0.1, SVG Export Plug-In . SVG Version: 6.00 Build 0)  -->
<svg version="1.1" id="Ebene_1" xmlns="http://www.w3.org/2000/svg" xmlns:xlink="http://www.w3.org/1999/xlink" x="0px" y="0px"
	 viewBox="0 0 198.3 75.9" style="enable-background:new 0 0 198.3 75.9;" xml:space="preserve">
<style type="text/css">
	.st0{fill:#F9B000;}
	.st1{fill:#FFFFFF;}
</style>
<title>Logo TFA</title>
<g>
	<path class="st0" d="M145.5,0h52.8v76H83.7c20.3-5.6,62.6-21.8,70-47C157.1,17.2,152.1,6.7,145.5,0z"/>
	<g>
		<polygon class="st1" points="14.2,57.5 32.5,57.5 32.5,24.7 46.7,24.7 46.7,14.2 0,14.2 0,24.7 14.2,24.7 		"/>
		<polygon class="st1" points="53.6,57.5 71.9,57.5 71.9,41.4 92.4,41.4 92.4,32.3 71.9,32.3 71.9,23.3 93.5,23.3 93.5,14.2 
			53.6,14.2 		"/>
		<path class="st1" d="M92,57.5h17.9l3.4-7.2h22.4l3.2,7.2H159l-22.1-43.4h-22.8L92,57.5z M117.7,40.8l7-15.1l6.7,15.1H117.7z"/>
	</g>
	<path class="st1" d="M147.3,21.4c2.2,0,4-1.8,4-4s-1.8-4-4-4s-4,1.8-4,4S145.1,21.4,147.3,21.4z M147.3,20.5
		c-1.6,0-2.9-1.2-2.9-2.8c0-0.1,0-0.2,0-0.2c-0.1-1.6,1.1-3,2.8-3.1s3,1.1,3.1,2.8c0,0.1,0,0.2,0,0.3c0.1,1.6-1.2,2.9-2.7,3
		C147.4,20.5,147.4,20.5,147.3,20.5z M148.2,17.8c0.8,0,1.2-0.4,1.2-1.2c0-1-0.5-1.3-1.7-1.3h-2.1v4.3h0.9v-1.8h0.7l1,1.8h1
		L148.2,17.8z M146.5,17.2V16h1c0.4,0,1-0.1,1,0.5c0,0.6-0.3,0.6-0.8,0.6H146.5z"/>
</g>
</svg>
