<?xml version="1.0" encoding="UTF-8" standalone="no"?>
<svg
   xmlns:dc="http://purl.org/dc/elements/1.1/"
   xmlns:cc="http://creativecommons.org/ns#"
   xmlns:rdf="http://www.w3.org/1999/02/22-rdf-syntax-ns#"
   xmlns:svg="http://www.w3.org/2000/svg"
   xmlns="http://www.w3.org/2000/svg"
   width="198.28"
   height="75.95"
   viewBox="0 0 198.28 75.95"
   version="1.1"
   id="svg16">
  <metadata
     id="metadata22">
    <rdf:RDF>
      <cc:Work
         rdf:about="">
        <dc:format>image/svg+xml</dc:format>
        <dc:type
           rdf:resource="http://purl.org/dc/dcmitype/StillImage" />
        <dc:title></dc:title>
      </cc:Work>
    </rdf:RDF>
  </metadata>
  <defs
     id="defs20" />
  <g
     id="g14">
    <path
       d="M145.46,0h52.82V76H83.66c20.33-5.55,62.55-21.84,70-47C157.07,17.18,152.13,6.71,145.46,0Z"
       style="fill: #f9b000;fill-rule: evenodd"
       id="path2" />
    <g
       id="g10">
      <polygon
         points="14.24 57.54 32.51 57.54 32.51 24.74 46.74 24.74 46.74 14.16 0 14.16 0 24.74 14.24 24.74 14.24 57.54"
         style="fill: #00305d;fill-rule: evenodd"
         id="polygon4" />
      <polygon
         points="53.62 57.54 71.89 57.54 71.89 41.44 92.43 41.44 92.43 32.31 71.89 32.31 71.89 23.3 93.52 23.3 93.52 14.16 53.62 14.16 53.62 57.54"
         style="fill: #00305d;fill-rule: evenodd"
         id="polygon6" />
      <path
         d="M92,57.54h17.9l3.36-7.21h22.42l3.18,7.21H159L136.88,14.16H114.11Zm25.65-16.7,7-15.14,6.73,15.14Z"
         style="fill: #00305d;fill-rule: evenodd"
         id="path8" />
    </g>
    <path
       d="M147.29,21.44a4,4,0,1,0-4-4A4,4,0,0,0,147.29,21.44Zm0-.94a2.85,2.85,0,0,1-2.93-3,2.93,2.93,0,1,1,5.85,0A2.87,2.87,0,0,1,147.29,20.5Zm.93-2.68c.75-.05,1.17-.38,1.17-1.17,0-1-.54-1.32-1.67-1.32h-2.07v4.3h.9V17.82h.71l1,1.81h1Zm-1.67-.65V16h1c.42,0,1-.05,1,.54s-.34.64-.82.63Z"
       style="fill: #00305d;fill-rule: evenodd"
       id="path12" />
  </g>
</svg>
